<mxfile host="app.diagrams.net" modified="2024-03-11T14:06:08.133Z" agent="Mozilla/5.0 (Windows NT 10.0; Win64; x64) AppleWebKit/537.36 (KHTML, like Gecko) Chrome/122.0.0.0 Safari/537.36" etag="Dyam4lwxgBR953q_0wA0" version="24.0.3" type="device">
  <diagram id="C5RBs43oDa-KdzZeNtuy" name="Page-1">
    <mxGraphModel dx="1332" dy="1603" grid="1" gridSize="10" guides="1" tooltips="1" connect="1" arrows="1" fold="1" page="1" pageScale="1" pageWidth="827" pageHeight="1169" math="0" shadow="0">
      <root>
        <mxCell id="WIyWlLk6GJQsqaUBKTNV-0" />
        <mxCell id="WIyWlLk6GJQsqaUBKTNV-1" parent="WIyWlLk6GJQsqaUBKTNV-0" />
        <mxCell id="_FJ0eizZe0EGMl9TzmrN-8" value="&lt;i&gt;Endereco&lt;/i&gt;" style="swimlane;fontStyle=0;childLayout=stackLayout;horizontal=1;startSize=26;fillColor=none;horizontalStack=0;resizeParent=1;resizeParentMax=0;resizeLast=0;collapsible=1;marginBottom=0;whiteSpace=wrap;html=1;" parent="WIyWlLk6GJQsqaUBKTNV-1" vertex="1">
          <mxGeometry x="330" y="90" width="140" height="200" as="geometry" />
        </mxCell>
        <mxCell id="_FJ0eizZe0EGMl9TzmrN-9" value="# Long: id" style="text;strokeColor=none;fillColor=none;align=left;verticalAlign=top;spacingLeft=4;spacingRight=4;overflow=hidden;rotatable=0;points=[[0,0.5],[1,0.5]];portConstraint=eastwest;whiteSpace=wrap;html=1;" parent="_FJ0eizZe0EGMl9TzmrN-8" vertex="1">
          <mxGeometry y="26" width="140" height="26" as="geometry" />
        </mxCell>
        <mxCell id="_FJ0eizZe0EGMl9TzmrN-10" value="# String: logradouro&lt;div&gt;&lt;br&gt;&lt;/div&gt;" style="text;strokeColor=none;fillColor=none;align=left;verticalAlign=top;spacingLeft=4;spacingRight=4;overflow=hidden;rotatable=0;points=[[0,0.5],[1,0.5]];portConstraint=eastwest;whiteSpace=wrap;html=1;" parent="_FJ0eizZe0EGMl9TzmrN-8" vertex="1">
          <mxGeometry y="52" width="140" height="26" as="geometry" />
        </mxCell>
        <mxCell id="_FJ0eizZe0EGMl9TzmrN-11" value="# String: numero&lt;br&gt;&lt;br&gt;# String: bairro&lt;br&gt;&lt;br&gt;# String: cep&lt;br&gt;&lt;br&gt;# String: observacao&lt;br&gt;&lt;br&gt;&lt;br&gt;&lt;br&gt;&lt;br&gt;&lt;div&gt;&lt;br&gt;&lt;/div&gt;" style="text;strokeColor=none;fillColor=none;align=left;verticalAlign=top;spacingLeft=4;spacingRight=4;overflow=hidden;rotatable=0;points=[[0,0.5],[1,0.5]];portConstraint=eastwest;whiteSpace=wrap;html=1;" parent="_FJ0eizZe0EGMl9TzmrN-8" vertex="1">
          <mxGeometry y="78" width="140" height="122" as="geometry" />
        </mxCell>
        <mxCell id="_FJ0eizZe0EGMl9TzmrN-12" value="TipoLogradouto" style="swimlane;fontStyle=1;align=center;verticalAlign=top;childLayout=stackLayout;horizontal=1;startSize=26;horizontalStack=0;resizeParent=1;resizeParentMax=0;resizeLast=0;collapsible=1;marginBottom=0;whiteSpace=wrap;html=1;" parent="WIyWlLk6GJQsqaUBKTNV-1" vertex="1">
          <mxGeometry x="560" y="20" width="160" height="60" as="geometry" />
        </mxCell>
        <mxCell id="_FJ0eizZe0EGMl9TzmrN-13" value="- String tipoLogradouro" style="text;strokeColor=none;fillColor=none;align=left;verticalAlign=top;spacingLeft=4;spacingRight=4;overflow=hidden;rotatable=0;points=[[0,0.5],[1,0.5]];portConstraint=eastwest;whiteSpace=wrap;html=1;" parent="_FJ0eizZe0EGMl9TzmrN-12" vertex="1">
          <mxGeometry y="26" width="160" height="26" as="geometry" />
        </mxCell>
        <mxCell id="_FJ0eizZe0EGMl9TzmrN-14" value="" style="line;strokeWidth=1;fillColor=none;align=left;verticalAlign=middle;spacingTop=-1;spacingLeft=3;spacingRight=3;rotatable=0;labelPosition=right;points=[];portConstraint=eastwest;strokeColor=inherit;" parent="_FJ0eizZe0EGMl9TzmrN-12" vertex="1">
          <mxGeometry y="52" width="160" height="8" as="geometry" />
        </mxCell>
        <mxCell id="_FJ0eizZe0EGMl9TzmrN-16" value="TipoResidencia" style="swimlane;fontStyle=1;align=center;verticalAlign=top;childLayout=stackLayout;horizontal=1;startSize=26;horizontalStack=0;resizeParent=1;resizeParentMax=0;resizeLast=0;collapsible=1;marginBottom=0;whiteSpace=wrap;html=1;" parent="WIyWlLk6GJQsqaUBKTNV-1" vertex="1">
          <mxGeometry x="560" y="110" width="160" height="60" as="geometry" />
        </mxCell>
        <mxCell id="_FJ0eizZe0EGMl9TzmrN-17" value="- String: tipoLogradouro" style="text;strokeColor=none;fillColor=none;align=left;verticalAlign=top;spacingLeft=4;spacingRight=4;overflow=hidden;rotatable=0;points=[[0,0.5],[1,0.5]];portConstraint=eastwest;whiteSpace=wrap;html=1;" parent="_FJ0eizZe0EGMl9TzmrN-16" vertex="1">
          <mxGeometry y="26" width="160" height="26" as="geometry" />
        </mxCell>
        <mxCell id="_FJ0eizZe0EGMl9TzmrN-18" value="" style="line;strokeWidth=1;fillColor=none;align=left;verticalAlign=middle;spacingTop=-1;spacingLeft=3;spacingRight=3;rotatable=0;labelPosition=right;points=[];portConstraint=eastwest;strokeColor=inherit;" parent="_FJ0eizZe0EGMl9TzmrN-16" vertex="1">
          <mxGeometry y="52" width="160" height="8" as="geometry" />
        </mxCell>
        <mxCell id="_FJ0eizZe0EGMl9TzmrN-19" value="Cidade" style="swimlane;fontStyle=1;align=center;verticalAlign=top;childLayout=stackLayout;horizontal=1;startSize=26;horizontalStack=0;resizeParent=1;resizeParentMax=0;resizeLast=0;collapsible=1;marginBottom=0;whiteSpace=wrap;html=1;" parent="WIyWlLk6GJQsqaUBKTNV-1" vertex="1">
          <mxGeometry x="560" y="210" width="160" height="60" as="geometry" />
        </mxCell>
        <mxCell id="_FJ0eizZe0EGMl9TzmrN-20" value="- String: cidade" style="text;strokeColor=none;fillColor=none;align=left;verticalAlign=top;spacingLeft=4;spacingRight=4;overflow=hidden;rotatable=0;points=[[0,0.5],[1,0.5]];portConstraint=eastwest;whiteSpace=wrap;html=1;" parent="_FJ0eizZe0EGMl9TzmrN-19" vertex="1">
          <mxGeometry y="26" width="160" height="26" as="geometry" />
        </mxCell>
        <mxCell id="_FJ0eizZe0EGMl9TzmrN-21" value="" style="line;strokeWidth=1;fillColor=none;align=left;verticalAlign=middle;spacingTop=-1;spacingLeft=3;spacingRight=3;rotatable=0;labelPosition=right;points=[];portConstraint=eastwest;strokeColor=inherit;" parent="_FJ0eizZe0EGMl9TzmrN-19" vertex="1">
          <mxGeometry y="52" width="160" height="8" as="geometry" />
        </mxCell>
        <mxCell id="_FJ0eizZe0EGMl9TzmrN-22" value="" style="endArrow=none;html=1;rounded=0;entryX=-0.012;entryY=0.231;entryDx=0;entryDy=0;entryPerimeter=0;exitX=1;exitY=0.5;exitDx=0;exitDy=0;" parent="WIyWlLk6GJQsqaUBKTNV-1" source="_FJ0eizZe0EGMl9TzmrN-9" target="_FJ0eizZe0EGMl9TzmrN-13" edge="1">
          <mxGeometry width="50" height="50" relative="1" as="geometry">
            <mxPoint x="500" y="120" as="sourcePoint" />
            <mxPoint x="590" y="120" as="targetPoint" />
          </mxGeometry>
        </mxCell>
        <mxCell id="_FJ0eizZe0EGMl9TzmrN-23" value="" style="endArrow=none;html=1;rounded=0;exitX=1;exitY=0.307;exitDx=0;exitDy=0;exitPerimeter=0;entryX=0;entryY=0.154;entryDx=0;entryDy=0;entryPerimeter=0;" parent="WIyWlLk6GJQsqaUBKTNV-1" source="_FJ0eizZe0EGMl9TzmrN-11" target="_FJ0eizZe0EGMl9TzmrN-17" edge="1">
          <mxGeometry width="50" height="50" relative="1" as="geometry">
            <mxPoint x="530" y="240" as="sourcePoint" />
            <mxPoint x="580" y="190" as="targetPoint" />
          </mxGeometry>
        </mxCell>
        <mxCell id="_FJ0eizZe0EGMl9TzmrN-24" value="" style="endArrow=none;html=1;rounded=0;exitX=1.011;exitY=0.827;exitDx=0;exitDy=0;exitPerimeter=0;entryX=0;entryY=0.333;entryDx=0;entryDy=0;entryPerimeter=0;" parent="WIyWlLk6GJQsqaUBKTNV-1" source="_FJ0eizZe0EGMl9TzmrN-11" target="_FJ0eizZe0EGMl9TzmrN-19" edge="1">
          <mxGeometry width="50" height="50" relative="1" as="geometry">
            <mxPoint x="530" y="240" as="sourcePoint" />
            <mxPoint x="580" y="190" as="targetPoint" />
          </mxGeometry>
        </mxCell>
        <mxCell id="_FJ0eizZe0EGMl9TzmrN-25" value="Cobranca" style="swimlane;fontStyle=0;childLayout=stackLayout;horizontal=1;startSize=20;horizontalStack=0;resizeParent=1;resizeParentMax=0;resizeLast=0;collapsible=1;marginBottom=0;whiteSpace=wrap;html=1;" parent="WIyWlLk6GJQsqaUBKTNV-1" vertex="1">
          <mxGeometry x="274" y="409" width="140" height="50" as="geometry" />
        </mxCell>
        <mxCell id="_FJ0eizZe0EGMl9TzmrN-27" value="- boolean: ativo" style="text;strokeColor=none;fillColor=none;align=left;verticalAlign=middle;spacingLeft=4;spacingRight=4;overflow=hidden;points=[[0,0.5],[1,0.5]];portConstraint=eastwest;rotatable=0;whiteSpace=wrap;html=1;" parent="_FJ0eizZe0EGMl9TzmrN-25" vertex="1">
          <mxGeometry y="20" width="140" height="30" as="geometry" />
        </mxCell>
        <mxCell id="_FJ0eizZe0EGMl9TzmrN-29" value="Entrega" style="swimlane;fontStyle=0;childLayout=stackLayout;horizontal=1;startSize=20;horizontalStack=0;resizeParent=1;resizeParentMax=0;resizeLast=0;collapsible=1;marginBottom=0;whiteSpace=wrap;html=1;" parent="WIyWlLk6GJQsqaUBKTNV-1" vertex="1">
          <mxGeometry x="560" y="339" width="140" height="80" as="geometry" />
        </mxCell>
        <mxCell id="_FJ0eizZe0EGMl9TzmrN-30" value="- boolean: ativo&lt;br&gt;&lt;br&gt;- String: fraseEntrega" style="text;strokeColor=none;fillColor=none;align=left;verticalAlign=middle;spacingLeft=4;spacingRight=4;overflow=hidden;points=[[0,0.5],[1,0.5]];portConstraint=eastwest;rotatable=0;whiteSpace=wrap;html=1;" parent="_FJ0eizZe0EGMl9TzmrN-29" vertex="1">
          <mxGeometry y="20" width="140" height="60" as="geometry" />
        </mxCell>
        <mxCell id="_FJ0eizZe0EGMl9TzmrN-31" value="Extends" style="endArrow=block;endSize=16;endFill=0;html=1;rounded=0;exitX=0.394;exitY=-0.037;exitDx=0;exitDy=0;exitPerimeter=0;entryX=0.663;entryY=1.025;entryDx=0;entryDy=0;entryPerimeter=0;" parent="WIyWlLk6GJQsqaUBKTNV-1" source="_FJ0eizZe0EGMl9TzmrN-29" target="_FJ0eizZe0EGMl9TzmrN-11" edge="1">
          <mxGeometry width="160" relative="1" as="geometry">
            <mxPoint x="480" y="310" as="sourcePoint" />
            <mxPoint x="640" y="310" as="targetPoint" />
          </mxGeometry>
        </mxCell>
        <mxCell id="_FJ0eizZe0EGMl9TzmrN-32" value="Extends" style="endArrow=block;endSize=16;endFill=0;html=1;rounded=0;exitX=0.621;exitY=-0.06;exitDx=0;exitDy=0;exitPerimeter=0;entryX=0.258;entryY=1.033;entryDx=0;entryDy=0;entryPerimeter=0;" parent="WIyWlLk6GJQsqaUBKTNV-1" source="_FJ0eizZe0EGMl9TzmrN-25" target="_FJ0eizZe0EGMl9TzmrN-11" edge="1">
          <mxGeometry width="160" relative="1" as="geometry">
            <mxPoint x="537" y="347" as="sourcePoint" />
            <mxPoint x="446" y="303" as="targetPoint" />
          </mxGeometry>
        </mxCell>
        <mxCell id="_FJ0eizZe0EGMl9TzmrN-33" value="Cliente" style="swimlane;fontStyle=0;childLayout=stackLayout;horizontal=1;startSize=26;fillColor=none;horizontalStack=0;resizeParent=1;resizeParentMax=0;resizeLast=0;collapsible=1;marginBottom=0;whiteSpace=wrap;html=1;" parent="WIyWlLk6GJQsqaUBKTNV-1" vertex="1">
          <mxGeometry x="770" y="340" width="150" height="230" as="geometry" />
        </mxCell>
        <mxCell id="_FJ0eizZe0EGMl9TzmrN-34" value="- Long: id" style="text;strokeColor=none;fillColor=none;align=left;verticalAlign=top;spacingLeft=4;spacingRight=4;overflow=hidden;rotatable=0;points=[[0,0.5],[1,0.5]];portConstraint=eastwest;whiteSpace=wrap;html=1;" parent="_FJ0eizZe0EGMl9TzmrN-33" vertex="1">
          <mxGeometry y="26" width="150" height="26" as="geometry" />
        </mxCell>
        <mxCell id="_FJ0eizZe0EGMl9TzmrN-35" value="-&amp;nbsp; String: nome" style="text;strokeColor=none;fillColor=none;align=left;verticalAlign=top;spacingLeft=4;spacingRight=4;overflow=hidden;rotatable=0;points=[[0,0.5],[1,0.5]];portConstraint=eastwest;whiteSpace=wrap;html=1;" parent="_FJ0eizZe0EGMl9TzmrN-33" vertex="1">
          <mxGeometry y="52" width="150" height="26" as="geometry" />
        </mxCell>
        <mxCell id="_FJ0eizZe0EGMl9TzmrN-36" value="- String: cpf&lt;br&gt;&lt;br&gt;- LocalDate: nascimento&lt;div&gt;&lt;br&gt;&lt;/div&gt;&lt;div&gt;- String: senha&lt;/div&gt;&lt;div&gt;&lt;br&gt;&lt;/div&gt;&lt;div&gt;- String: confirmarSenha&lt;/div&gt;&lt;div&gt;&lt;br&gt;&lt;/div&gt;&lt;div&gt;- boolean: ativo&lt;/div&gt;" style="text;strokeColor=none;fillColor=none;align=left;verticalAlign=top;spacingLeft=4;spacingRight=4;overflow=hidden;rotatable=0;points=[[0,0.5],[1,0.5]];portConstraint=eastwest;whiteSpace=wrap;html=1;" parent="_FJ0eizZe0EGMl9TzmrN-33" vertex="1">
          <mxGeometry y="78" width="150" height="152" as="geometry" />
        </mxCell>
        <mxCell id="_FJ0eizZe0EGMl9TzmrN-37" value="Genero" style="swimlane;fontStyle=0;childLayout=stackLayout;horizontal=1;startSize=26;fillColor=none;horizontalStack=0;resizeParent=1;resizeParentMax=0;resizeLast=0;collapsible=1;marginBottom=0;whiteSpace=wrap;html=1;" parent="WIyWlLk6GJQsqaUBKTNV-1" vertex="1">
          <mxGeometry x="950" y="283" width="90" height="80" as="geometry" />
        </mxCell>
        <mxCell id="_FJ0eizZe0EGMl9TzmrN-38" value="MASCULINO&lt;br&gt;&lt;br&gt;FEMININO" style="text;strokeColor=none;fillColor=none;align=left;verticalAlign=top;spacingLeft=4;spacingRight=4;overflow=hidden;rotatable=0;points=[[0,0.5],[1,0.5]];portConstraint=eastwest;whiteSpace=wrap;html=1;" parent="_FJ0eizZe0EGMl9TzmrN-37" vertex="1">
          <mxGeometry y="26" width="90" height="54" as="geometry" />
        </mxCell>
        <mxCell id="_FJ0eizZe0EGMl9TzmrN-41" value="Telefone" style="swimlane;fontStyle=0;childLayout=stackLayout;horizontal=1;startSize=26;fillColor=none;horizontalStack=0;resizeParent=1;resizeParentMax=0;resizeLast=0;collapsible=1;marginBottom=0;whiteSpace=wrap;html=1;" parent="WIyWlLk6GJQsqaUBKTNV-1" vertex="1">
          <mxGeometry x="510" y="520" width="130" height="80" as="geometry" />
        </mxCell>
        <mxCell id="_FJ0eizZe0EGMl9TzmrN-42" value="- String: ddd;&lt;br&gt;&lt;br&gt;- String: telefone&lt;div&gt;&lt;br&gt;&lt;/div&gt;" style="text;strokeColor=none;fillColor=none;align=left;verticalAlign=top;spacingLeft=4;spacingRight=4;overflow=hidden;rotatable=0;points=[[0,0.5],[1,0.5]];portConstraint=eastwest;whiteSpace=wrap;html=1;" parent="_FJ0eizZe0EGMl9TzmrN-41" vertex="1">
          <mxGeometry y="26" width="130" height="54" as="geometry" />
        </mxCell>
        <mxCell id="_FJ0eizZe0EGMl9TzmrN-43" value="TipoTelefone" style="swimlane;fontStyle=0;childLayout=stackLayout;horizontal=1;startSize=26;fillColor=none;horizontalStack=0;resizeParent=1;resizeParentMax=0;resizeLast=0;collapsible=1;marginBottom=0;whiteSpace=wrap;html=1;" parent="WIyWlLk6GJQsqaUBKTNV-1" vertex="1">
          <mxGeometry x="280" y="527" width="150" height="100" as="geometry" />
        </mxCell>
        <mxCell id="_FJ0eizZe0EGMl9TzmrN-44" value="COMERCIAL&lt;br&gt;RESIDENCIAL&lt;br&gt;MOVEL&lt;br&gt;FIXO" style="text;strokeColor=none;fillColor=none;align=left;verticalAlign=top;spacingLeft=4;spacingRight=4;overflow=hidden;rotatable=0;points=[[0,0.5],[1,0.5]];portConstraint=eastwest;whiteSpace=wrap;html=1;" parent="_FJ0eizZe0EGMl9TzmrN-43" vertex="1">
          <mxGeometry y="26" width="150" height="74" as="geometry" />
        </mxCell>
        <mxCell id="_FJ0eizZe0EGMl9TzmrN-45" value="" style="endArrow=none;html=1;rounded=0;exitX=0.996;exitY=0.139;exitDx=0;exitDy=0;exitPerimeter=0;entryX=0;entryY=0.5;entryDx=0;entryDy=0;" parent="WIyWlLk6GJQsqaUBKTNV-1" source="_FJ0eizZe0EGMl9TzmrN-44" target="_FJ0eizZe0EGMl9TzmrN-42" edge="1">
          <mxGeometry width="50" height="50" relative="1" as="geometry">
            <mxPoint x="580" y="610" as="sourcePoint" />
            <mxPoint x="580" y="580" as="targetPoint" />
          </mxGeometry>
        </mxCell>
        <mxCell id="_FJ0eizZe0EGMl9TzmrN-46" value="" style="endArrow=none;html=1;rounded=0;entryX=0;entryY=0.737;entryDx=0;entryDy=0;entryPerimeter=0;exitX=1;exitY=0.25;exitDx=0;exitDy=0;exitPerimeter=0;" parent="WIyWlLk6GJQsqaUBKTNV-1" source="_FJ0eizZe0EGMl9TzmrN-41" target="_FJ0eizZe0EGMl9TzmrN-36" edge="1">
          <mxGeometry width="50" height="50" relative="1" as="geometry">
            <mxPoint x="530" y="550" as="sourcePoint" />
            <mxPoint x="580" y="500" as="targetPoint" />
          </mxGeometry>
        </mxCell>
        <mxCell id="_FJ0eizZe0EGMl9TzmrN-47" value="Cartao" style="swimlane;fontStyle=0;childLayout=stackLayout;horizontal=1;startSize=26;fillColor=none;horizontalStack=0;resizeParent=1;resizeParentMax=0;resizeLast=0;collapsible=1;marginBottom=0;whiteSpace=wrap;html=1;" parent="WIyWlLk6GJQsqaUBKTNV-1" vertex="1">
          <mxGeometry x="931" y="628" width="160" height="170" as="geometry" />
        </mxCell>
        <mxCell id="_FJ0eizZe0EGMl9TzmrN-48" value="- Long: id&lt;br&gt;&lt;br&gt;- boolean: ativo" style="text;strokeColor=none;fillColor=none;align=left;verticalAlign=top;spacingLeft=4;spacingRight=4;overflow=hidden;rotatable=0;points=[[0,0.5],[1,0.5]];portConstraint=eastwest;whiteSpace=wrap;html=1;" parent="_FJ0eizZe0EGMl9TzmrN-47" vertex="1">
          <mxGeometry y="26" width="160" height="26" as="geometry" />
        </mxCell>
        <mxCell id="_FJ0eizZe0EGMl9TzmrN-49" value="- boolean: principal = false&lt;br&gt;&lt;br&gt;- String nomeImpresso&lt;br&gt;&lt;br&gt;- String codigo&lt;br&gt;&lt;br&gt;- String numeroCartao&lt;br&gt;&lt;div&gt;&lt;br/&gt;&lt;/div&gt;" style="text;strokeColor=none;fillColor=none;align=left;verticalAlign=top;spacingLeft=4;spacingRight=4;overflow=hidden;rotatable=0;points=[[0,0.5],[1,0.5]];portConstraint=eastwest;whiteSpace=wrap;html=1;" parent="_FJ0eizZe0EGMl9TzmrN-47" vertex="1">
          <mxGeometry y="52" width="160" height="118" as="geometry" />
        </mxCell>
        <mxCell id="_FJ0eizZe0EGMl9TzmrN-56" value="" style="endArrow=none;html=1;rounded=0;entryX=0.45;entryY=1.02;entryDx=0;entryDy=0;entryPerimeter=0;exitX=0.319;exitY=0;exitDx=0;exitDy=0;exitPerimeter=0;" parent="WIyWlLk6GJQsqaUBKTNV-1" source="_FJ0eizZe0EGMl9TzmrN-47" target="_FJ0eizZe0EGMl9TzmrN-36" edge="1">
          <mxGeometry width="50" height="50" relative="1" as="geometry">
            <mxPoint x="851" y="620" as="sourcePoint" />
            <mxPoint x="580" y="600" as="targetPoint" />
          </mxGeometry>
        </mxCell>
        <mxCell id="_FJ0eizZe0EGMl9TzmrN-57" value="Bandeira" style="swimlane;fontStyle=0;childLayout=stackLayout;horizontal=1;startSize=26;fillColor=none;horizontalStack=0;resizeParent=1;resizeParentMax=0;resizeLast=0;collapsible=1;marginBottom=0;whiteSpace=wrap;html=1;" parent="WIyWlLk6GJQsqaUBKTNV-1" vertex="1">
          <mxGeometry x="1141" y="628" width="100" height="110" as="geometry" />
        </mxCell>
        <mxCell id="_FJ0eizZe0EGMl9TzmrN-58" value="MASTERCARD&lt;br&gt;&lt;br&gt;VISA&lt;br&gt;&lt;br&gt;ELO" style="text;strokeColor=none;fillColor=none;align=left;verticalAlign=top;spacingLeft=4;spacingRight=4;overflow=hidden;rotatable=0;points=[[0,0.5],[1,0.5]];portConstraint=eastwest;whiteSpace=wrap;html=1;" parent="_FJ0eizZe0EGMl9TzmrN-57" vertex="1">
          <mxGeometry y="26" width="100" height="84" as="geometry" />
        </mxCell>
        <mxCell id="_FJ0eizZe0EGMl9TzmrN-60" value="" style="endArrow=none;html=1;rounded=0;exitX=1;exitY=0.5;exitDx=0;exitDy=0;entryX=0;entryY=0.143;entryDx=0;entryDy=0;entryPerimeter=0;" parent="WIyWlLk6GJQsqaUBKTNV-1" source="_FJ0eizZe0EGMl9TzmrN-48" target="_FJ0eizZe0EGMl9TzmrN-58" edge="1">
          <mxGeometry width="50" height="50" relative="1" as="geometry">
            <mxPoint x="1051" y="648" as="sourcePoint" />
            <mxPoint x="1131" y="668" as="targetPoint" />
          </mxGeometry>
        </mxCell>
        <mxCell id="_FJ0eizZe0EGMl9TzmrN-61" value="Estado" style="swimlane;fontStyle=1;align=center;verticalAlign=top;childLayout=stackLayout;horizontal=1;startSize=26;horizontalStack=0;resizeParent=1;resizeParentMax=0;resizeLast=0;collapsible=1;marginBottom=0;whiteSpace=wrap;html=1;" parent="WIyWlLk6GJQsqaUBKTNV-1" vertex="1">
          <mxGeometry x="770" y="180" width="100" height="60" as="geometry" />
        </mxCell>
        <mxCell id="_FJ0eizZe0EGMl9TzmrN-62" value="- String: estado" style="text;strokeColor=none;fillColor=none;align=left;verticalAlign=top;spacingLeft=4;spacingRight=4;overflow=hidden;rotatable=0;points=[[0,0.5],[1,0.5]];portConstraint=eastwest;whiteSpace=wrap;html=1;" parent="_FJ0eizZe0EGMl9TzmrN-61" vertex="1">
          <mxGeometry y="26" width="100" height="26" as="geometry" />
        </mxCell>
        <mxCell id="_FJ0eizZe0EGMl9TzmrN-63" value="" style="line;strokeWidth=1;fillColor=none;align=left;verticalAlign=middle;spacingTop=-1;spacingLeft=3;spacingRight=3;rotatable=0;labelPosition=right;points=[];portConstraint=eastwest;strokeColor=inherit;" parent="_FJ0eizZe0EGMl9TzmrN-61" vertex="1">
          <mxGeometry y="52" width="100" height="8" as="geometry" />
        </mxCell>
        <mxCell id="_FJ0eizZe0EGMl9TzmrN-64" value="Pais" style="swimlane;fontStyle=1;align=center;verticalAlign=top;childLayout=stackLayout;horizontal=1;startSize=26;horizontalStack=0;resizeParent=1;resizeParentMax=0;resizeLast=0;collapsible=1;marginBottom=0;whiteSpace=wrap;html=1;" parent="WIyWlLk6GJQsqaUBKTNV-1" vertex="1">
          <mxGeometry x="770" y="80" width="100" height="60" as="geometry" />
        </mxCell>
        <mxCell id="_FJ0eizZe0EGMl9TzmrN-65" value="- String: pais" style="text;strokeColor=none;fillColor=none;align=left;verticalAlign=top;spacingLeft=4;spacingRight=4;overflow=hidden;rotatable=0;points=[[0,0.5],[1,0.5]];portConstraint=eastwest;whiteSpace=wrap;html=1;" parent="_FJ0eizZe0EGMl9TzmrN-64" vertex="1">
          <mxGeometry y="26" width="100" height="26" as="geometry" />
        </mxCell>
        <mxCell id="_FJ0eizZe0EGMl9TzmrN-66" value="" style="line;strokeWidth=1;fillColor=none;align=left;verticalAlign=middle;spacingTop=-1;spacingLeft=3;spacingRight=3;rotatable=0;labelPosition=right;points=[];portConstraint=eastwest;strokeColor=inherit;" parent="_FJ0eizZe0EGMl9TzmrN-64" vertex="1">
          <mxGeometry y="52" width="100" height="8" as="geometry" />
        </mxCell>
        <mxCell id="_FJ0eizZe0EGMl9TzmrN-67" value="" style="endArrow=none;html=1;rounded=0;" parent="WIyWlLk6GJQsqaUBKTNV-1" edge="1">
          <mxGeometry width="50" height="50" relative="1" as="geometry">
            <mxPoint x="720" y="238" as="sourcePoint" />
            <mxPoint x="770" y="220" as="targetPoint" />
          </mxGeometry>
        </mxCell>
        <mxCell id="_FJ0eizZe0EGMl9TzmrN-68" value="" style="endArrow=none;html=1;rounded=0;exitX=0.5;exitY=0;exitDx=0;exitDy=0;" parent="WIyWlLk6GJQsqaUBKTNV-1" source="_FJ0eizZe0EGMl9TzmrN-61" edge="1">
          <mxGeometry width="50" height="50" relative="1" as="geometry">
            <mxPoint x="790" y="250" as="sourcePoint" />
            <mxPoint x="822" y="141" as="targetPoint" />
          </mxGeometry>
        </mxCell>
        <mxCell id="_FJ0eizZe0EGMl9TzmrN-69" value="" style="endArrow=none;html=1;rounded=0;exitX=1;exitY=0.5;exitDx=0;exitDy=0;entryX=0.942;entryY=1.167;entryDx=0;entryDy=0;entryPerimeter=0;" parent="WIyWlLk6GJQsqaUBKTNV-1" source="_FJ0eizZe0EGMl9TzmrN-34" target="_FJ0eizZe0EGMl9TzmrN-76" edge="1">
          <mxGeometry width="50" height="50" relative="1" as="geometry">
            <mxPoint x="790" y="450" as="sourcePoint" />
            <mxPoint x="1000" y="370" as="targetPoint" />
          </mxGeometry>
        </mxCell>
        <mxCell id="_FJ0eizZe0EGMl9TzmrN-71" value="" style="endArrow=none;html=1;rounded=0;exitX=1;exitY=0.317;exitDx=0;exitDy=0;exitPerimeter=0;" parent="WIyWlLk6GJQsqaUBKTNV-1" source="_FJ0eizZe0EGMl9TzmrN-30" edge="1">
          <mxGeometry width="50" height="50" relative="1" as="geometry">
            <mxPoint x="710" y="350" as="sourcePoint" />
            <mxPoint x="770" y="380" as="targetPoint" />
          </mxGeometry>
        </mxCell>
        <mxCell id="_FJ0eizZe0EGMl9TzmrN-72" value="" style="endArrow=none;html=1;rounded=0;exitX=1;exitY=0.5;exitDx=0;exitDy=0;entryX=-0.017;entryY=0.066;entryDx=0;entryDy=0;entryPerimeter=0;" parent="WIyWlLk6GJQsqaUBKTNV-1" source="_FJ0eizZe0EGMl9TzmrN-27" target="_FJ0eizZe0EGMl9TzmrN-36" edge="1">
          <mxGeometry width="50" height="50" relative="1" as="geometry">
            <mxPoint x="710" y="350" as="sourcePoint" />
            <mxPoint x="760" y="300" as="targetPoint" />
          </mxGeometry>
        </mxCell>
        <mxCell id="_FJ0eizZe0EGMl9TzmrN-73" value="1..*" style="text;html=1;align=center;verticalAlign=middle;resizable=0;points=[];autosize=1;strokeColor=none;fillColor=none;" parent="WIyWlLk6GJQsqaUBKTNV-1" vertex="1">
          <mxGeometry x="414" y="409" width="40" height="30" as="geometry" />
        </mxCell>
        <mxCell id="_FJ0eizZe0EGMl9TzmrN-74" value="1..*" style="text;html=1;align=center;verticalAlign=middle;resizable=0;points=[];autosize=1;strokeColor=none;fillColor=none;" parent="WIyWlLk6GJQsqaUBKTNV-1" vertex="1">
          <mxGeometry x="700" y="350" width="40" height="30" as="geometry" />
        </mxCell>
        <mxCell id="_FJ0eizZe0EGMl9TzmrN-75" value="1" style="text;html=1;align=center;verticalAlign=middle;resizable=0;points=[];autosize=1;strokeColor=none;fillColor=none;" parent="WIyWlLk6GJQsqaUBKTNV-1" vertex="1">
          <mxGeometry x="640" y="500" width="30" height="30" as="geometry" />
        </mxCell>
        <mxCell id="_FJ0eizZe0EGMl9TzmrN-76" value="1" style="text;html=1;align=center;verticalAlign=middle;resizable=0;points=[];autosize=1;strokeColor=none;fillColor=none;" parent="WIyWlLk6GJQsqaUBKTNV-1" vertex="1">
          <mxGeometry x="920" y="293" width="30" height="30" as="geometry" />
        </mxCell>
        <mxCell id="_FJ0eizZe0EGMl9TzmrN-77" value="1..*" style="text;html=1;align=center;verticalAlign=middle;resizable=0;points=[];autosize=1;strokeColor=none;fillColor=none;" parent="WIyWlLk6GJQsqaUBKTNV-1" vertex="1">
          <mxGeometry x="975" y="590" width="40" height="30" as="geometry" />
        </mxCell>
        <mxCell id="_FJ0eizZe0EGMl9TzmrN-78" value="1" style="text;html=1;align=center;verticalAlign=middle;resizable=0;points=[];autosize=1;strokeColor=none;fillColor=none;" parent="WIyWlLk6GJQsqaUBKTNV-1" vertex="1">
          <mxGeometry x="1111" y="638" width="30" height="30" as="geometry" />
        </mxCell>
        <mxCell id="_FJ0eizZe0EGMl9TzmrN-79" value="1" style="text;html=1;align=center;verticalAlign=middle;resizable=0;points=[];autosize=1;strokeColor=none;fillColor=none;" parent="WIyWlLk6GJQsqaUBKTNV-1" vertex="1">
          <mxGeometry x="430" y="562" width="30" height="30" as="geometry" />
        </mxCell>
        <mxCell id="_FJ0eizZe0EGMl9TzmrN-80" value="1" style="text;html=1;align=center;verticalAlign=middle;resizable=0;points=[];autosize=1;strokeColor=none;fillColor=none;" parent="WIyWlLk6GJQsqaUBKTNV-1" vertex="1">
          <mxGeometry x="530" y="120" width="30" height="30" as="geometry" />
        </mxCell>
        <mxCell id="_FJ0eizZe0EGMl9TzmrN-81" value="1" style="text;html=1;align=center;verticalAlign=middle;resizable=0;points=[];autosize=1;strokeColor=none;fillColor=none;" parent="WIyWlLk6GJQsqaUBKTNV-1" vertex="1">
          <mxGeometry x="530" y="20" width="30" height="30" as="geometry" />
        </mxCell>
        <mxCell id="_FJ0eizZe0EGMl9TzmrN-82" value="1" style="text;html=1;align=center;verticalAlign=middle;resizable=0;points=[];autosize=1;strokeColor=none;fillColor=none;" parent="WIyWlLk6GJQsqaUBKTNV-1" vertex="1">
          <mxGeometry x="740" y="190" width="30" height="30" as="geometry" />
        </mxCell>
        <mxCell id="_FJ0eizZe0EGMl9TzmrN-83" value="1" style="text;html=1;align=center;verticalAlign=middle;resizable=0;points=[];autosize=1;strokeColor=none;fillColor=none;" parent="WIyWlLk6GJQsqaUBKTNV-1" vertex="1">
          <mxGeometry x="820" y="140" width="30" height="30" as="geometry" />
        </mxCell>
        <mxCell id="_FJ0eizZe0EGMl9TzmrN-85" value="1" style="text;html=1;align=center;verticalAlign=middle;resizable=0;points=[];autosize=1;strokeColor=none;fillColor=none;" parent="WIyWlLk6GJQsqaUBKTNV-1" vertex="1">
          <mxGeometry x="520" y="210" width="30" height="30" as="geometry" />
        </mxCell>
        <mxCell id="_FJ0eizZe0EGMl9TzmrN-86" value="Livro" style="swimlane;fontStyle=0;childLayout=stackLayout;horizontal=1;startSize=26;fillColor=none;horizontalStack=0;resizeParent=1;resizeParentMax=0;resizeLast=0;collapsible=1;marginBottom=0;whiteSpace=wrap;html=1;" parent="WIyWlLk6GJQsqaUBKTNV-1" vertex="1">
          <mxGeometry x="1340" y="-5" width="116" height="230" as="geometry" />
        </mxCell>
        <mxCell id="_FJ0eizZe0EGMl9TzmrN-87" value="- Long: id;" style="text;strokeColor=none;fillColor=none;align=left;verticalAlign=top;spacingLeft=4;spacingRight=4;overflow=hidden;rotatable=0;points=[[0,0.5],[1,0.5]];portConstraint=eastwest;whiteSpace=wrap;html=1;" parent="_FJ0eizZe0EGMl9TzmrN-86" vertex="1">
          <mxGeometry y="26" width="116" height="26" as="geometry" />
        </mxCell>
        <mxCell id="_FJ0eizZe0EGMl9TzmrN-88" value="- LocalDate: ano" style="text;strokeColor=none;fillColor=none;align=left;verticalAlign=top;spacingLeft=4;spacingRight=4;overflow=hidden;rotatable=0;points=[[0,0.5],[1,0.5]];portConstraint=eastwest;whiteSpace=wrap;html=1;" parent="_FJ0eizZe0EGMl9TzmrN-86" vertex="1">
          <mxGeometry y="52" width="116" height="26" as="geometry" />
        </mxCell>
        <mxCell id="_FJ0eizZe0EGMl9TzmrN-89" value="- String: titulo&lt;br&gt;&lt;br&gt;-string: isbn&lt;br&gt;&lt;br&gt;- int: paginas&lt;br&gt;&lt;br&gt;- String sinopse&lt;br&gt;&lt;br&gt;- String: codigoBarra&lt;br&gt;&lt;br&gt;&lt;br&gt;&lt;br&gt;&lt;div&gt;&lt;br&gt;&lt;/div&gt;" style="text;strokeColor=none;fillColor=none;align=left;verticalAlign=top;spacingLeft=4;spacingRight=4;overflow=hidden;rotatable=0;points=[[0,0.5],[1,0.5]];portConstraint=eastwest;whiteSpace=wrap;html=1;" parent="_FJ0eizZe0EGMl9TzmrN-86" vertex="1">
          <mxGeometry y="78" width="116" height="152" as="geometry" />
        </mxCell>
        <mxCell id="_FJ0eizZe0EGMl9TzmrN-90" value="Autor" style="swimlane;fontStyle=0;childLayout=stackLayout;horizontal=1;startSize=26;fillColor=none;horizontalStack=0;resizeParent=1;resizeParentMax=0;resizeLast=0;collapsible=1;marginBottom=0;whiteSpace=wrap;html=1;" parent="WIyWlLk6GJQsqaUBKTNV-1" vertex="1">
          <mxGeometry x="1410" y="307" width="140" height="52" as="geometry" />
        </mxCell>
        <mxCell id="_FJ0eizZe0EGMl9TzmrN-91" value="- String: nome" style="text;strokeColor=none;fillColor=none;align=left;verticalAlign=top;spacingLeft=4;spacingRight=4;overflow=hidden;rotatable=0;points=[[0,0.5],[1,0.5]];portConstraint=eastwest;whiteSpace=wrap;html=1;" parent="_FJ0eizZe0EGMl9TzmrN-90" vertex="1">
          <mxGeometry y="26" width="140" height="26" as="geometry" />
        </mxCell>
        <mxCell id="_FJ0eizZe0EGMl9TzmrN-94" value="Categoria" style="swimlane;fontStyle=0;childLayout=stackLayout;horizontal=1;startSize=26;fillColor=none;horizontalStack=0;resizeParent=1;resizeParentMax=0;resizeLast=0;collapsible=1;marginBottom=0;whiteSpace=wrap;html=1;" parent="WIyWlLk6GJQsqaUBKTNV-1" vertex="1">
          <mxGeometry x="1550" y="180" width="140" height="52" as="geometry" />
        </mxCell>
        <mxCell id="_FJ0eizZe0EGMl9TzmrN-95" value="- String: nome" style="text;strokeColor=none;fillColor=none;align=left;verticalAlign=top;spacingLeft=4;spacingRight=4;overflow=hidden;rotatable=0;points=[[0,0.5],[1,0.5]];portConstraint=eastwest;whiteSpace=wrap;html=1;" parent="_FJ0eizZe0EGMl9TzmrN-94" vertex="1">
          <mxGeometry y="26" width="140" height="26" as="geometry" />
        </mxCell>
        <mxCell id="_FJ0eizZe0EGMl9TzmrN-98" value="Editora" style="swimlane;fontStyle=0;childLayout=stackLayout;horizontal=1;startSize=26;fillColor=none;horizontalStack=0;resizeParent=1;resizeParentMax=0;resizeLast=0;collapsible=1;marginBottom=0;whiteSpace=wrap;html=1;" parent="WIyWlLk6GJQsqaUBKTNV-1" vertex="1">
          <mxGeometry x="1200" y="-10" width="100" height="52" as="geometry" />
        </mxCell>
        <mxCell id="_FJ0eizZe0EGMl9TzmrN-100" value="- String: nome" style="text;strokeColor=none;fillColor=none;align=left;verticalAlign=top;spacingLeft=4;spacingRight=4;overflow=hidden;rotatable=0;points=[[0,0.5],[1,0.5]];portConstraint=eastwest;whiteSpace=wrap;html=1;" parent="_FJ0eizZe0EGMl9TzmrN-98" vertex="1">
          <mxGeometry y="26" width="100" height="26" as="geometry" />
        </mxCell>
        <mxCell id="_FJ0eizZe0EGMl9TzmrN-102" value="Dimensoes" style="swimlane;fontStyle=0;childLayout=stackLayout;horizontal=1;startSize=26;fillColor=none;horizontalStack=0;resizeParent=1;resizeParentMax=0;resizeLast=0;collapsible=1;marginBottom=0;whiteSpace=wrap;html=1;" parent="WIyWlLk6GJQsqaUBKTNV-1" vertex="1">
          <mxGeometry x="1540" y="30" width="170" height="140" as="geometry" />
        </mxCell>
        <mxCell id="_FJ0eizZe0EGMl9TzmrN-103" value="- BigDecimal: altura" style="text;strokeColor=none;fillColor=none;align=left;verticalAlign=top;spacingLeft=4;spacingRight=4;overflow=hidden;rotatable=0;points=[[0,0.5],[1,0.5]];portConstraint=eastwest;whiteSpace=wrap;html=1;" parent="_FJ0eizZe0EGMl9TzmrN-102" vertex="1">
          <mxGeometry y="26" width="170" height="26" as="geometry" />
        </mxCell>
        <mxCell id="_FJ0eizZe0EGMl9TzmrN-104" value="- BigDecimal: largura" style="text;strokeColor=none;fillColor=none;align=left;verticalAlign=top;spacingLeft=4;spacingRight=4;overflow=hidden;rotatable=0;points=[[0,0.5],[1,0.5]];portConstraint=eastwest;whiteSpace=wrap;html=1;" parent="_FJ0eizZe0EGMl9TzmrN-102" vertex="1">
          <mxGeometry y="52" width="170" height="26" as="geometry" />
        </mxCell>
        <mxCell id="_FJ0eizZe0EGMl9TzmrN-105" value="- BigDecimal: peso&lt;br&gt;&lt;br&gt;- BigDecimal: profundidade" style="text;strokeColor=none;fillColor=none;align=left;verticalAlign=top;spacingLeft=4;spacingRight=4;overflow=hidden;rotatable=0;points=[[0,0.5],[1,0.5]];portConstraint=eastwest;whiteSpace=wrap;html=1;" parent="_FJ0eizZe0EGMl9TzmrN-102" vertex="1">
          <mxGeometry y="78" width="170" height="62" as="geometry" />
        </mxCell>
        <mxCell id="_FJ0eizZe0EGMl9TzmrN-106" value="Precificacao" style="swimlane;fontStyle=0;childLayout=stackLayout;horizontal=1;startSize=26;fillColor=none;horizontalStack=0;resizeParent=1;resizeParentMax=0;resizeLast=0;collapsible=1;marginBottom=0;whiteSpace=wrap;html=1;" parent="WIyWlLk6GJQsqaUBKTNV-1" vertex="1">
          <mxGeometry x="1111" y="80" width="160" height="52" as="geometry" />
        </mxCell>
        <mxCell id="_FJ0eizZe0EGMl9TzmrN-109" value="- BigDecimal: precificacao" style="text;strokeColor=none;fillColor=none;align=left;verticalAlign=top;spacingLeft=4;spacingRight=4;overflow=hidden;rotatable=0;points=[[0,0.5],[1,0.5]];portConstraint=eastwest;whiteSpace=wrap;html=1;" parent="_FJ0eizZe0EGMl9TzmrN-106" vertex="1">
          <mxGeometry y="26" width="160" height="26" as="geometry" />
        </mxCell>
        <mxCell id="_FJ0eizZe0EGMl9TzmrN-110" value="Edicao" style="swimlane;fontStyle=0;childLayout=stackLayout;horizontal=1;startSize=26;fillColor=none;horizontalStack=0;resizeParent=1;resizeParentMax=0;resizeLast=0;collapsible=1;marginBottom=0;whiteSpace=wrap;html=1;" parent="WIyWlLk6GJQsqaUBKTNV-1" vertex="1">
          <mxGeometry x="1119" y="164" width="140" height="52" as="geometry" />
        </mxCell>
        <mxCell id="_FJ0eizZe0EGMl9TzmrN-112" value="- String: numeroEdicao" style="text;strokeColor=none;fillColor=none;align=left;verticalAlign=top;spacingLeft=4;spacingRight=4;overflow=hidden;rotatable=0;points=[[0,0.5],[1,0.5]];portConstraint=eastwest;whiteSpace=wrap;html=1;" parent="_FJ0eizZe0EGMl9TzmrN-110" vertex="1">
          <mxGeometry y="26" width="140" height="26" as="geometry" />
        </mxCell>
        <mxCell id="_FJ0eizZe0EGMl9TzmrN-115" value="" style="endArrow=none;html=1;rounded=0;exitX=0.5;exitY=0;exitDx=0;exitDy=0;" parent="WIyWlLk6GJQsqaUBKTNV-1" source="_FJ0eizZe0EGMl9TzmrN-90" target="_FJ0eizZe0EGMl9TzmrN-89" edge="1">
          <mxGeometry width="50" height="50" relative="1" as="geometry">
            <mxPoint x="1240" y="260" as="sourcePoint" />
            <mxPoint x="1290" y="210" as="targetPoint" />
          </mxGeometry>
        </mxCell>
        <mxCell id="_FJ0eizZe0EGMl9TzmrN-116" value="1..*" style="text;html=1;align=center;verticalAlign=middle;resizable=0;points=[];autosize=1;strokeColor=none;fillColor=none;" parent="WIyWlLk6GJQsqaUBKTNV-1" vertex="1">
          <mxGeometry x="1485" y="277" width="40" height="30" as="geometry" />
        </mxCell>
        <mxCell id="_FJ0eizZe0EGMl9TzmrN-117" value="" style="endArrow=none;html=1;rounded=0;entryX=0;entryY=0.863;entryDx=0;entryDy=0;entryPerimeter=0;exitX=1;exitY=0.5;exitDx=0;exitDy=0;" parent="WIyWlLk6GJQsqaUBKTNV-1" source="_FJ0eizZe0EGMl9TzmrN-112" target="_FJ0eizZe0EGMl9TzmrN-89" edge="1">
          <mxGeometry width="50" height="50" relative="1" as="geometry">
            <mxPoint x="1240" y="260" as="sourcePoint" />
            <mxPoint x="1310" y="240" as="targetPoint" />
          </mxGeometry>
        </mxCell>
        <mxCell id="_FJ0eizZe0EGMl9TzmrN-119" value="1" style="text;html=1;align=center;verticalAlign=middle;resizable=0;points=[];autosize=1;strokeColor=none;fillColor=none;" parent="WIyWlLk6GJQsqaUBKTNV-1" vertex="1">
          <mxGeometry x="1259" y="175" width="30" height="30" as="geometry" />
        </mxCell>
        <mxCell id="_FJ0eizZe0EGMl9TzmrN-120" value="" style="endArrow=none;html=1;rounded=0;exitX=0;exitY=0.5;exitDx=0;exitDy=0;entryX=1.005;entryY=0.863;entryDx=0;entryDy=0;entryPerimeter=0;" parent="WIyWlLk6GJQsqaUBKTNV-1" source="_FJ0eizZe0EGMl9TzmrN-94" target="_FJ0eizZe0EGMl9TzmrN-89" edge="1">
          <mxGeometry width="50" height="50" relative="1" as="geometry">
            <mxPoint x="1240" y="260" as="sourcePoint" />
            <mxPoint x="1290" y="210" as="targetPoint" />
          </mxGeometry>
        </mxCell>
        <mxCell id="_FJ0eizZe0EGMl9TzmrN-121" value="1..*" style="text;html=1;align=center;verticalAlign=middle;resizable=0;points=[];autosize=1;strokeColor=none;fillColor=none;" parent="WIyWlLk6GJQsqaUBKTNV-1" vertex="1">
          <mxGeometry x="1510" y="170" width="40" height="30" as="geometry" />
        </mxCell>
        <mxCell id="_FJ0eizZe0EGMl9TzmrN-122" value="" style="endArrow=none;html=1;rounded=0;exitX=0.007;exitY=0.048;exitDx=0;exitDy=0;exitPerimeter=0;entryX=0.995;entryY=0.06;entryDx=0;entryDy=0;entryPerimeter=0;" parent="WIyWlLk6GJQsqaUBKTNV-1" source="_FJ0eizZe0EGMl9TzmrN-105" target="_FJ0eizZe0EGMl9TzmrN-89" edge="1">
          <mxGeometry width="50" height="50" relative="1" as="geometry">
            <mxPoint x="1240" y="260" as="sourcePoint" />
            <mxPoint x="1290" y="210" as="targetPoint" />
          </mxGeometry>
        </mxCell>
        <mxCell id="_FJ0eizZe0EGMl9TzmrN-123" value="1" style="text;html=1;align=center;verticalAlign=middle;resizable=0;points=[];autosize=1;strokeColor=none;fillColor=none;" parent="WIyWlLk6GJQsqaUBKTNV-1" vertex="1">
          <mxGeometry x="1510" y="80" width="30" height="30" as="geometry" />
        </mxCell>
        <mxCell id="_FJ0eizZe0EGMl9TzmrN-124" value="" style="endArrow=none;html=1;rounded=0;exitX=1;exitY=0.5;exitDx=0;exitDy=0;entryX=0;entryY=0.5;entryDx=0;entryDy=0;" parent="WIyWlLk6GJQsqaUBKTNV-1" source="_FJ0eizZe0EGMl9TzmrN-109" target="_FJ0eizZe0EGMl9TzmrN-88" edge="1">
          <mxGeometry width="50" height="50" relative="1" as="geometry">
            <mxPoint x="1240" y="260" as="sourcePoint" />
            <mxPoint x="1290" y="210" as="targetPoint" />
          </mxGeometry>
        </mxCell>
        <mxCell id="_FJ0eizZe0EGMl9TzmrN-125" value="1&lt;div&gt;&lt;br/&gt;&lt;/div&gt;" style="text;html=1;align=center;verticalAlign=middle;resizable=0;points=[];autosize=1;strokeColor=none;fillColor=none;" parent="WIyWlLk6GJQsqaUBKTNV-1" vertex="1">
          <mxGeometry x="1270" y="80" width="30" height="40" as="geometry" />
        </mxCell>
        <mxCell id="_FJ0eizZe0EGMl9TzmrN-126" value="" style="endArrow=none;html=1;rounded=0;entryX=-0.033;entryY=0.05;entryDx=0;entryDy=0;entryPerimeter=0;" parent="WIyWlLk6GJQsqaUBKTNV-1" source="_FJ0eizZe0EGMl9TzmrN-86" target="_FJ0eizZe0EGMl9TzmrN-127" edge="1">
          <mxGeometry width="50" height="50" relative="1" as="geometry">
            <mxPoint x="1240" y="60" as="sourcePoint" />
            <mxPoint x="1410" y="-50" as="targetPoint" />
          </mxGeometry>
        </mxCell>
        <mxCell id="_FJ0eizZe0EGMl9TzmrN-127" value="1&lt;div&gt;&lt;br/&gt;&lt;/div&gt;" style="text;html=1;align=center;verticalAlign=middle;resizable=0;points=[];autosize=1;strokeColor=none;fillColor=none;" parent="WIyWlLk6GJQsqaUBKTNV-1" vertex="1">
          <mxGeometry x="1300" y="30" width="30" height="40" as="geometry" />
        </mxCell>
        <mxCell id="KOTBD8KGm-6hm_cV5pZ4-0" value="Cupom" style="swimlane;fontStyle=0;childLayout=stackLayout;horizontal=1;startSize=26;fillColor=none;horizontalStack=0;resizeParent=1;resizeParentMax=0;resizeLast=0;collapsible=1;marginBottom=0;whiteSpace=wrap;html=1;" parent="WIyWlLk6GJQsqaUBKTNV-1" vertex="1">
          <mxGeometry x="620" y="622" width="160" height="176" as="geometry" />
        </mxCell>
        <mxCell id="KOTBD8KGm-6hm_cV5pZ4-1" value="&lt;div&gt;&amp;nbsp;- Long: id&lt;/div&gt;&lt;div&gt;&lt;br&gt;&lt;/div&gt;&lt;div&gt;- Boolean: status = true&lt;/div&gt;&lt;div&gt;&lt;br&gt;&lt;/div&gt;- LocalDaTime: validade&lt;br&gt;&lt;br&gt;&lt;div&gt;- BigDecimal: valor&lt;/div&gt;&lt;div&gt;&lt;br&gt;&lt;/div&gt;&lt;div&gt;- String: condicaoUso&lt;/div&gt;" style="text;strokeColor=none;fillColor=none;align=left;verticalAlign=top;spacingLeft=4;spacingRight=4;overflow=hidden;rotatable=0;points=[[0,0.5],[1,0.5]];portConstraint=eastwest;whiteSpace=wrap;html=1;" parent="KOTBD8KGm-6hm_cV5pZ4-0" vertex="1">
          <mxGeometry y="26" width="160" height="150" as="geometry" />
        </mxCell>
        <mxCell id="KOTBD8KGm-6hm_cV5pZ4-2" value="Troca" style="swimlane;fontStyle=0;childLayout=stackLayout;horizontal=1;startSize=26;fillColor=none;horizontalStack=0;resizeParent=1;resizeParentMax=0;resizeLast=0;collapsible=1;marginBottom=0;whiteSpace=wrap;html=1;" parent="WIyWlLk6GJQsqaUBKTNV-1" vertex="1">
          <mxGeometry x="570" y="832" width="90" height="40" as="geometry" />
        </mxCell>
        <mxCell id="KOTBD8KGm-6hm_cV5pZ4-3" value="&lt;div&gt;&lt;br&gt;&lt;/div&gt;&lt;div&gt;&lt;br&gt;&lt;/div&gt;&lt;br&gt;&lt;div&gt;&lt;br&gt;&lt;/div&gt;" style="text;strokeColor=none;fillColor=none;align=left;verticalAlign=top;spacingLeft=4;spacingRight=4;overflow=hidden;rotatable=0;points=[[0,0.5],[1,0.5]];portConstraint=eastwest;whiteSpace=wrap;html=1;" parent="KOTBD8KGm-6hm_cV5pZ4-2" vertex="1">
          <mxGeometry y="26" width="90" height="14" as="geometry" />
        </mxCell>
        <mxCell id="KOTBD8KGm-6hm_cV5pZ4-4" value="Promocional" style="swimlane;fontStyle=0;childLayout=stackLayout;horizontal=1;startSize=26;fillColor=none;horizontalStack=0;resizeParent=1;resizeParentMax=0;resizeLast=0;collapsible=1;marginBottom=0;whiteSpace=wrap;html=1;" parent="WIyWlLk6GJQsqaUBKTNV-1" vertex="1">
          <mxGeometry x="750" y="832" width="100" height="40" as="geometry" />
        </mxCell>
        <mxCell id="KOTBD8KGm-6hm_cV5pZ4-5" value="&lt;div&gt;&lt;br&gt;&lt;/div&gt;&lt;div&gt;&lt;br&gt;&lt;/div&gt;&lt;br&gt;&lt;div&gt;&lt;br&gt;&lt;/div&gt;" style="text;strokeColor=none;fillColor=none;align=left;verticalAlign=top;spacingLeft=4;spacingRight=4;overflow=hidden;rotatable=0;points=[[0,0.5],[1,0.5]];portConstraint=eastwest;whiteSpace=wrap;html=1;" parent="KOTBD8KGm-6hm_cV5pZ4-4" vertex="1">
          <mxGeometry y="26" width="100" height="14" as="geometry" />
        </mxCell>
        <mxCell id="KOTBD8KGm-6hm_cV5pZ4-6" value="Extends" style="endArrow=block;endSize=16;endFill=0;html=1;rounded=0;exitX=0.456;exitY=-0.05;exitDx=0;exitDy=0;exitPerimeter=0;" parent="WIyWlLk6GJQsqaUBKTNV-1" source="KOTBD8KGm-6hm_cV5pZ4-2" edge="1">
          <mxGeometry width="160" relative="1" as="geometry">
            <mxPoint x="540" y="747" as="sourcePoint" />
            <mxPoint x="680" y="797" as="targetPoint" />
          </mxGeometry>
        </mxCell>
        <mxCell id="KOTBD8KGm-6hm_cV5pZ4-7" value="Extends" style="endArrow=block;endSize=16;endFill=0;html=1;rounded=0;entryX=0.555;entryY=1;entryDx=0;entryDy=0;entryPerimeter=0;exitX=0.317;exitY=-0.1;exitDx=0;exitDy=0;exitPerimeter=0;" parent="WIyWlLk6GJQsqaUBKTNV-1" source="KOTBD8KGm-6hm_cV5pZ4-4" target="KOTBD8KGm-6hm_cV5pZ4-1" edge="1">
          <mxGeometry width="160" relative="1" as="geometry">
            <mxPoint x="830" y="857" as="sourcePoint" />
            <mxPoint x="760" y="797" as="targetPoint" />
          </mxGeometry>
        </mxCell>
        <mxCell id="KOTBD8KGm-6hm_cV5pZ4-14" value="ESTOQUE" style="swimlane;fontStyle=0;childLayout=stackLayout;horizontal=1;startSize=26;fillColor=none;horizontalStack=0;resizeParent=1;resizeParentMax=0;resizeLast=0;collapsible=1;marginBottom=0;whiteSpace=wrap;html=1;" parent="WIyWlLk6GJQsqaUBKTNV-1" vertex="1">
          <mxGeometry x="1600" y="424" width="160" height="120" as="geometry" />
        </mxCell>
        <mxCell id="KOTBD8KGm-6hm_cV5pZ4-16" value="&lt;div&gt;- Long: id&lt;/div&gt;&lt;div&gt;&lt;span style=&quot;background-color: initial;&quot;&gt;&lt;br&gt;&lt;/span&gt;&lt;/div&gt;&lt;div&gt;&lt;span style=&quot;background-color: initial;&quot;&gt;- BigDecial: valorCusto&lt;/span&gt;&lt;br&gt;&lt;/div&gt;&lt;div&gt;&lt;br&gt;&lt;/div&gt;&lt;div&gt;LocalDate: dataEntrada&lt;/div&gt;&lt;div&gt;&lt;br&gt;&lt;/div&gt;&lt;div&gt;&lt;br&gt;&lt;/div&gt;" style="text;strokeColor=none;fillColor=none;align=left;verticalAlign=top;spacingLeft=4;spacingRight=4;overflow=hidden;rotatable=0;points=[[0,0.5],[1,0.5]];portConstraint=eastwest;whiteSpace=wrap;html=1;" parent="KOTBD8KGm-6hm_cV5pZ4-14" vertex="1">
          <mxGeometry y="26" width="160" height="94" as="geometry" />
        </mxCell>
        <mxCell id="KOTBD8KGm-6hm_cV5pZ4-22" value="Fornededor" style="swimlane;fontStyle=0;childLayout=stackLayout;horizontal=1;startSize=26;fillColor=none;horizontalStack=0;resizeParent=1;resizeParentMax=0;resizeLast=0;collapsible=1;marginBottom=0;whiteSpace=wrap;html=1;" parent="WIyWlLk6GJQsqaUBKTNV-1" vertex="1">
          <mxGeometry x="1805" y="426" width="170" height="58" as="geometry" />
        </mxCell>
        <mxCell id="KOTBD8KGm-6hm_cV5pZ4-23" value="- String: nome" style="text;strokeColor=none;fillColor=none;align=left;verticalAlign=top;spacingLeft=4;spacingRight=4;overflow=hidden;rotatable=0;points=[[0,0.5],[1,0.5]];portConstraint=eastwest;whiteSpace=wrap;html=1;" parent="KOTBD8KGm-6hm_cV5pZ4-22" vertex="1">
          <mxGeometry y="26" width="170" height="24" as="geometry" />
        </mxCell>
        <mxCell id="KOTBD8KGm-6hm_cV5pZ4-24" value="&lt;div&gt;&lt;br&gt;&lt;/div&gt;&lt;div&gt;&lt;br&gt;&lt;/div&gt;&lt;div&gt;&lt;br&gt;&lt;/div&gt;&lt;div&gt;&lt;br&gt;&lt;/div&gt;" style="text;strokeColor=none;fillColor=none;align=left;verticalAlign=top;spacingLeft=4;spacingRight=4;overflow=hidden;rotatable=0;points=[[0,0.5],[1,0.5]];portConstraint=eastwest;whiteSpace=wrap;html=1;" parent="KOTBD8KGm-6hm_cV5pZ4-22" vertex="1">
          <mxGeometry y="50" width="170" height="8" as="geometry" />
        </mxCell>
        <mxCell id="KOTBD8KGm-6hm_cV5pZ4-29" value="" style="endArrow=none;html=1;rounded=0;exitX=0;exitY=0.5;exitDx=0;exitDy=0;entryX=1;entryY=0.5;entryDx=0;entryDy=0;" parent="WIyWlLk6GJQsqaUBKTNV-1" source="KOTBD8KGm-6hm_cV5pZ4-23" target="KOTBD8KGm-6hm_cV5pZ4-16" edge="1">
          <mxGeometry width="50" height="50" relative="1" as="geometry">
            <mxPoint x="1465" y="482" as="sourcePoint" />
            <mxPoint x="1464" y="419" as="targetPoint" />
          </mxGeometry>
        </mxCell>
        <mxCell id="KOTBD8KGm-6hm_cV5pZ4-30" value="1..*" style="text;html=1;align=center;verticalAlign=middle;resizable=0;points=[];autosize=1;strokeColor=none;fillColor=none;" parent="WIyWlLk6GJQsqaUBKTNV-1" vertex="1">
          <mxGeometry x="1765" y="440" width="40" height="30" as="geometry" />
        </mxCell>
        <mxCell id="KOTBD8KGm-6hm_cV5pZ4-33" value="Itens" style="swimlane;fontStyle=0;childLayout=stackLayout;horizontal=1;startSize=26;fillColor=none;horizontalStack=0;resizeParent=1;resizeParentMax=0;resizeLast=0;collapsible=1;marginBottom=0;whiteSpace=wrap;html=1;" parent="WIyWlLk6GJQsqaUBKTNV-1" vertex="1">
          <mxGeometry x="1590" y="305" width="160" height="54" as="geometry" />
        </mxCell>
        <mxCell id="KOTBD8KGm-6hm_cV5pZ4-34" value="- int: quantidade" style="text;strokeColor=none;fillColor=none;align=left;verticalAlign=top;spacingLeft=4;spacingRight=4;overflow=hidden;rotatable=0;points=[[0,0.5],[1,0.5]];portConstraint=eastwest;whiteSpace=wrap;html=1;" parent="KOTBD8KGm-6hm_cV5pZ4-33" vertex="1">
          <mxGeometry y="26" width="160" height="26" as="geometry" />
        </mxCell>
        <mxCell id="KOTBD8KGm-6hm_cV5pZ4-35" value="&lt;div&gt;&lt;br&gt;&lt;/div&gt;&lt;div&gt;- fornecedor&lt;/div&gt;" style="text;strokeColor=none;fillColor=none;align=left;verticalAlign=top;spacingLeft=4;spacingRight=4;overflow=hidden;rotatable=0;points=[[0,0.5],[1,0.5]];portConstraint=eastwest;whiteSpace=wrap;html=1;" parent="KOTBD8KGm-6hm_cV5pZ4-33" vertex="1">
          <mxGeometry y="52" width="160" height="2" as="geometry" />
        </mxCell>
        <mxCell id="KOTBD8KGm-6hm_cV5pZ4-44" value="" style="endArrow=none;html=1;rounded=0;entryX=-0.001;entryY=0.999;entryDx=0;entryDy=0;entryPerimeter=0;exitX=0.575;exitY=-0.017;exitDx=0;exitDy=0;exitPerimeter=0;" parent="WIyWlLk6GJQsqaUBKTNV-1" source="KOTBD8KGm-6hm_cV5pZ4-0" target="_FJ0eizZe0EGMl9TzmrN-36" edge="1">
          <mxGeometry width="50" height="50" relative="1" as="geometry">
            <mxPoint x="650" y="550" as="sourcePoint" />
            <mxPoint x="780" y="540" as="targetPoint" />
          </mxGeometry>
        </mxCell>
        <mxCell id="KOTBD8KGm-6hm_cV5pZ4-45" value="0..1" style="text;html=1;align=center;verticalAlign=middle;resizable=0;points=[];autosize=1;strokeColor=none;fillColor=none;" parent="WIyWlLk6GJQsqaUBKTNV-1" vertex="1">
          <mxGeometry x="735" y="592" width="40" height="30" as="geometry" />
        </mxCell>
        <mxCell id="KOTBD8KGm-6hm_cV5pZ4-46" value="Carrinho" style="swimlane;fontStyle=0;childLayout=stackLayout;horizontal=1;startSize=26;fillColor=none;horizontalStack=0;resizeParent=1;resizeParentMax=0;resizeLast=0;collapsible=1;marginBottom=0;whiteSpace=wrap;html=1;" parent="WIyWlLk6GJQsqaUBKTNV-1" vertex="1">
          <mxGeometry x="1119" y="424" width="160" height="52" as="geometry" />
        </mxCell>
        <mxCell id="KOTBD8KGm-6hm_cV5pZ4-47" value="- BigDecimal: valor" style="text;strokeColor=none;fillColor=none;align=left;verticalAlign=top;spacingLeft=4;spacingRight=4;overflow=hidden;rotatable=0;points=[[0,0.5],[1,0.5]];portConstraint=eastwest;whiteSpace=wrap;html=1;" parent="KOTBD8KGm-6hm_cV5pZ4-46" vertex="1">
          <mxGeometry y="26" width="160" height="26" as="geometry" />
        </mxCell>
        <mxCell id="KOTBD8KGm-6hm_cV5pZ4-51" value="" style="endArrow=none;html=1;rounded=0;entryX=0;entryY=0.5;entryDx=0;entryDy=0;" parent="WIyWlLk6GJQsqaUBKTNV-1" target="KOTBD8KGm-6hm_cV5pZ4-46" edge="1">
          <mxGeometry width="50" height="50" relative="1" as="geometry">
            <mxPoint x="920" y="480" as="sourcePoint" />
            <mxPoint x="973" y="384" as="targetPoint" />
          </mxGeometry>
        </mxCell>
        <mxCell id="KOTBD8KGm-6hm_cV5pZ4-54" value="1" style="text;html=1;align=center;verticalAlign=middle;resizable=0;points=[];autosize=1;strokeColor=none;fillColor=none;" parent="WIyWlLk6GJQsqaUBKTNV-1" vertex="1">
          <mxGeometry x="1080" y="414" width="30" height="30" as="geometry" />
        </mxCell>
        <mxCell id="KOTBD8KGm-6hm_cV5pZ4-55" value="" style="endArrow=none;html=1;rounded=0;entryX=0.28;entryY=1.018;entryDx=0;entryDy=0;exitX=0.5;exitY=0;exitDx=0;exitDy=0;entryPerimeter=0;" parent="WIyWlLk6GJQsqaUBKTNV-1" source="KOTBD8KGm-6hm_cV5pZ4-46" target="_FJ0eizZe0EGMl9TzmrN-89" edge="1">
          <mxGeometry width="50" height="50" relative="1" as="geometry">
            <mxPoint x="760" y="428" as="sourcePoint" />
            <mxPoint x="1348" y="230" as="targetPoint" />
          </mxGeometry>
        </mxCell>
        <mxCell id="KOTBD8KGm-6hm_cV5pZ4-56" value="1..*" style="text;html=1;align=center;verticalAlign=middle;resizable=0;points=[];autosize=1;strokeColor=none;fillColor=none;" parent="WIyWlLk6GJQsqaUBKTNV-1" vertex="1">
          <mxGeometry x="1360" y="225" width="40" height="30" as="geometry" />
        </mxCell>
        <mxCell id="KOTBD8KGm-6hm_cV5pZ4-60" value="Comprados" style="swimlane;fontStyle=0;childLayout=stackLayout;horizontal=1;startSize=26;fillColor=none;horizontalStack=0;resizeParent=1;resizeParentMax=0;resizeLast=0;collapsible=1;marginBottom=0;whiteSpace=wrap;html=1;" parent="WIyWlLk6GJQsqaUBKTNV-1" vertex="1">
          <mxGeometry x="1119" y="514" width="160" height="46" as="geometry" />
        </mxCell>
        <mxCell id="KOTBD8KGm-6hm_cV5pZ4-62" value="" style="endArrow=none;html=1;rounded=0;entryX=0.453;entryY=0.068;entryDx=0;entryDy=0;entryPerimeter=0;" parent="WIyWlLk6GJQsqaUBKTNV-1" target="KOTBD8KGm-6hm_cV5pZ4-60" edge="1">
          <mxGeometry width="50" height="50" relative="1" as="geometry">
            <mxPoint x="1190" y="480" as="sourcePoint" />
            <mxPoint x="1190" y="500" as="targetPoint" />
          </mxGeometry>
        </mxCell>
        <mxCell id="KOTBD8KGm-6hm_cV5pZ4-63" value="" style="endArrow=none;html=1;rounded=0;entryX=0;entryY=0.5;entryDx=0;entryDy=0;exitX=0.996;exitY=0.583;exitDx=0;exitDy=0;exitPerimeter=0;" parent="WIyWlLk6GJQsqaUBKTNV-1" source="_FJ0eizZe0EGMl9TzmrN-36" target="KOTBD8KGm-6hm_cV5pZ4-60" edge="1">
          <mxGeometry width="50" height="50" relative="1" as="geometry">
            <mxPoint x="930" y="490" as="sourcePoint" />
            <mxPoint x="1299" y="500" as="targetPoint" />
          </mxGeometry>
        </mxCell>
        <mxCell id="KOTBD8KGm-6hm_cV5pZ4-65" value="Status" style="swimlane;fontStyle=0;childLayout=stackLayout;horizontal=1;startSize=26;fillColor=none;horizontalStack=0;resizeParent=1;resizeParentMax=0;resizeLast=0;collapsible=1;marginBottom=0;whiteSpace=wrap;html=1;" parent="WIyWlLk6GJQsqaUBKTNV-1" vertex="1">
          <mxGeometry x="1351" y="520" width="174" height="90" as="geometry" />
        </mxCell>
        <mxCell id="KOTBD8KGm-6hm_cV5pZ4-66" value="&amp;nbsp;EM_ANALISE&lt;div&gt;APOVADO&lt;/div&gt;&lt;div&gt;EM_TRANSITO&lt;/div&gt;&lt;div&gt;ENTREGUE&lt;/div&gt;" style="text;strokeColor=none;fillColor=none;align=left;verticalAlign=top;spacingLeft=4;spacingRight=4;overflow=hidden;rotatable=0;points=[[0,0.5],[1,0.5]];portConstraint=eastwest;whiteSpace=wrap;html=1;" parent="KOTBD8KGm-6hm_cV5pZ4-65" vertex="1">
          <mxGeometry y="26" width="174" height="64" as="geometry" />
        </mxCell>
        <mxCell id="KOTBD8KGm-6hm_cV5pZ4-67" value="" style="endArrow=none;html=1;rounded=0;entryX=-0.009;entryY=0.092;entryDx=0;entryDy=0;exitX=1;exitY=0.75;exitDx=0;exitDy=0;entryPerimeter=0;" parent="WIyWlLk6GJQsqaUBKTNV-1" source="KOTBD8KGm-6hm_cV5pZ4-60" target="KOTBD8KGm-6hm_cV5pZ4-66" edge="1">
          <mxGeometry width="50" height="50" relative="1" as="geometry">
            <mxPoint x="759" y="477" as="sourcePoint" />
            <mxPoint x="1129" y="547" as="targetPoint" />
          </mxGeometry>
        </mxCell>
        <mxCell id="KOTBD8KGm-6hm_cV5pZ4-68" value="1" style="text;html=1;align=center;verticalAlign=middle;resizable=0;points=[];autosize=1;strokeColor=none;fillColor=none;" parent="WIyWlLk6GJQsqaUBKTNV-1" vertex="1">
          <mxGeometry x="1325" y="558" width="30" height="30" as="geometry" />
        </mxCell>
        <mxCell id="KOTBD8KGm-6hm_cV5pZ4-71" value="" style="endArrow=none;html=1;rounded=0;exitX=0.422;exitY=0.019;exitDx=0;exitDy=0;exitPerimeter=0;" parent="WIyWlLk6GJQsqaUBKTNV-1" source="KOTBD8KGm-6hm_cV5pZ4-33" edge="1">
          <mxGeometry width="50" height="50" relative="1" as="geometry">
            <mxPoint x="1490" y="317" as="sourcePoint" />
            <mxPoint x="1460" y="220" as="targetPoint" />
          </mxGeometry>
        </mxCell>
        <mxCell id="KOTBD8KGm-6hm_cV5pZ4-72" value="" style="endArrow=none;html=1;rounded=0;exitX=0.414;exitY=-0.023;exitDx=0;exitDy=0;exitPerimeter=0;entryX=0.453;entryY=2.625;entryDx=0;entryDy=0;entryPerimeter=0;" parent="WIyWlLk6GJQsqaUBKTNV-1" source="KOTBD8KGm-6hm_cV5pZ4-14" target="KOTBD8KGm-6hm_cV5pZ4-35" edge="1">
          <mxGeometry width="50" height="50" relative="1" as="geometry">
            <mxPoint x="1668" y="316" as="sourcePoint" />
            <mxPoint x="1470" y="230" as="targetPoint" />
          </mxGeometry>
        </mxCell>
        <mxCell id="KOTBD8KGm-6hm_cV5pZ4-73" value="0..*" style="text;html=1;align=center;verticalAlign=middle;resizable=0;points=[];autosize=1;strokeColor=none;fillColor=none;" parent="WIyWlLk6GJQsqaUBKTNV-1" vertex="1">
          <mxGeometry x="1650" y="278" width="40" height="30" as="geometry" />
        </mxCell>
        <mxCell id="KOTBD8KGm-6hm_cV5pZ4-74" value="1..*" style="text;html=1;align=center;verticalAlign=middle;resizable=0;points=[];autosize=1;strokeColor=none;fillColor=none;" parent="WIyWlLk6GJQsqaUBKTNV-1" vertex="1">
          <mxGeometry x="1670" y="398" width="40" height="30" as="geometry" />
        </mxCell>
        <mxCell id="KOTBD8KGm-6hm_cV5pZ4-76" value="1..*" style="text;html=1;align=center;verticalAlign=middle;resizable=0;points=[];autosize=1;strokeColor=none;fillColor=none;" parent="WIyWlLk6GJQsqaUBKTNV-1" vertex="1">
          <mxGeometry x="1660" y="363" width="40" height="30" as="geometry" />
        </mxCell>
      </root>
    </mxGraphModel>
  </diagram>
</mxfile>
